<svg viewBox="-96 0 511 511.99918" xmlns="http://www.w3.org/2000/svg"><path d="m158.671875 7.503906c-80.945313.570313-147.746094 65.421875-150.578125 146.316406-1.363281 38.953126 11.957031 74.761719 34.855469 102.335938 33.59375 40.453125 52.667969 90.988281 52.667969 143.570312v2.648438h128.304687v-2.648438c0-52.628906 19.160156-103.15625 52.75-143.671874 21.777344-26.269532 34.867187-59.996094 34.867187-96.785157 0-84.183593-68.542968-152.363281-152.867187-151.765625zm0 0" fill="#fadc60"/><path d="m72.949219 256.15625c-22.898438-27.574219-36.21875-63.382812-34.855469-102.335938 2.667969-76.234374 62.148438-138.207031 136.734375-145.578124-5.3125-.523438-10.699219-.777344-16.15625-.738282-80.945313.570313-147.746094 65.421875-150.578125 146.316406-1.363281 38.953126 11.957031 74.761719 34.855469 102.335938 33.59375 40.453125 52.667969 90.988281 52.667969 143.570312v2.648438h30v-2.648438c0-52.585937-19.074219-103.117187-52.667969-143.570312zm0 0" fill="#e6cb59"/><path d="m220.011719 436.417969h-120.484375c-18.800782 0-34.042969-15.242188-34.042969-34.042969 0-18.796875 15.242187-34.039062 34.042969-34.039062h120.484375c18.800781 0 34.039062 15.242187 34.039062 34.039062 0 18.800781-15.238281 34.042969-34.039062 34.042969zm0 0" fill="#596674"/><path d="m95.484375 402.375c0-18.796875 15.242187-34.039062 34.042969-34.039062h-30c-18.800782 0-34.042969 15.242187-34.042969 34.039062 0 18.800781 15.242187 34.042969 34.042969 34.042969h30c-18.800782 0-34.042969-15.242188-34.042969-34.042969zm0 0" fill="#565c62"/><path d="m220.011719 504.5h-120.484375c-18.800782 0-34.042969-15.242188-34.042969-34.039062 0-18.800782 15.242187-34.042969 34.042969-34.042969h120.484375c18.800781 0 34.039062 15.242187 34.039062 34.042969 0 18.800781-15.238281 34.039062-34.039062 34.039062zm0 0" fill="#565c62"/><path d="m95.484375 470.460938c0-18.800782 15.242187-34.042969 34.042969-34.042969h-30c-18.800782 0-34.042969 15.242187-34.042969 34.042969 0 18.796874 15.242187 34.039062 34.042969 34.039062h30c-18.800782 0-34.042969-15.238281-34.042969-34.039062zm0 0" fill="#464c51"/><path d="m229.996094 161.710938h-11.496094c-4.144531 0-7.5-3.359376-7.5-7.5 0-4.144532 3.355469-7.5 7.5-7.5h11.496094c4.140625 0 7.5 3.355468 7.5 7.5 0 4.140624-3.359375 7.5-7.5 7.5zm0 0" fill="#fd6f71"/><path d="m101.035156 161.710938h-11.496094c-4.140624 0-7.5-3.359376-7.5-7.5 0-4.144532 3.359376-7.5 7.5-7.5h11.496094c4.144532 0 7.5 3.355468 7.5 7.5 0 4.140624-3.355468 7.5-7.5 7.5zm0 0" fill="#fd6f71"/><path d="m180.472656 145.792969c-3.589844-2.0625-8.175781-.828125-10.238281 2.761719-2.148437 3.742187-6.160156 6.0625-10.464844 6.0625-4.308593 0-8.316406-2.320313-10.464843-6.0625-2.0625-3.589844-6.648438-4.828126-10.242188-2.761719-3.589844 2.0625-4.828125 6.648437-2.761719 10.238281 4.816407 8.382812 13.808594 13.585938 23.46875 13.585938 9.65625 0 18.648438-5.203126 23.46875-13.582032 2.0625-3.59375.824219-8.175781-2.765625-10.242187zm0 0"/><path d="m224.246094 113.480469c-4.140625 0-7.5 3.359375-7.5 7.5v11.496093c0 4.144532 3.359375 7.5 7.5 7.5 4.144531 0 7.5-3.355468 7.5-7.5v-11.496093c0-4.140625-3.355469-7.5-7.5-7.5zm0 0"/><path d="m95.289062 113.480469c-4.144531 0-7.5 3.359375-7.5 7.5v11.496093c0 4.144532 3.355469 7.5 7.5 7.5 4.140626 0 7.5-3.355468 7.5-7.5v-11.496093c0-4.140625-3.359374-7.5-7.5-7.5zm0 0"/><path d="m319.039062 159.269531c0-42.753906-16.710937-82.894531-47.050781-113.019531-30.339843-30.125-70.601562-46.511719-113.371093-46.24609375-41.097657.28906275-80.074219 16.32812475-109.753907 45.15624975-29.6875 28.839844-46.828125 67.335938-48.265625 108.398438-1.371094 39.191406 11.621094 77.332031 36.582032 107.390625 24.835937 29.902343 41.273437 65.226562 47.785156 102.527343-15.746094 5.914063-26.980469 21.117188-26.980469 38.898438 0 14.074219 7.039063 26.523438 17.777344 34.042969-10.738281 7.515625-17.777344 19.96875-17.777344 34.039062 0 22.90625 18.636719 41.542969 41.542969 41.542969h120.484375c22.90625 0 41.539062-18.636719 41.539062-41.542969 0-14.070312-7.039062-26.523437-17.773437-34.039062 10.734375-7.519531 17.773437-19.96875 17.773437-34.042969 0-17.78125-11.230469-32.980469-26.96875-38.898438 6.523438-37.269531 22.988281-72.628906 47.863281-102.636718 23.597657-28.464844 36.59375-64.535156 36.59375-101.570313zm-72.488281 243.105469c0 14.636719-11.90625 26.542969-26.539062 26.542969h-19.777344c-4.144531 0-7.5 3.359375-7.5 7.5s3.355469 7.5 7.5 7.5h19.777344c14.632812 0 26.539062 11.90625 26.539062 26.542969 0 14.632812-11.90625 26.539062-26.539062 26.539062h-120.488281c-14.632813 0-26.539063-11.90625-26.539063-26.539062 0-14.636719 11.90625-26.542969 26.539063-26.542969h72.710937c4.140625 0 7.5-3.359375 7.5-7.5s-3.359375-7.5-7.5-7.5h-72.710937c-14.632813 0-26.539063-11.90625-26.539063-26.542969 0-14.632812 11.90625-26.539062 26.539063-26.539062h120.484374c14.636719 0 26.542969 11.90625 26.542969 26.539062zm-125.710937-133.746094h-15.066406c-8.308594 0-15.066407-6.757812-15.066407-15.0625 0-8.308594 6.761719-15.066406 15.066407-15.066406 8.304687 0 15.066406 6.757812 15.066406 15.066406zm15 92.207032v-77.207032h47.859375v77.207032zm83.976562 0h-21.117187v-77.207032h15.0625c16.578125 0 30.066406-13.484375 30.066406-30.0625s-13.488281-30.066406-30.066406-30.066406-30.0625 13.488281-30.0625 30.066406v15.0625h-47.859375v-15.0625c0-16.578125-13.488282-30.066406-30.066406-30.066406-16.578126 0-30.066407 13.488281-30.066407 30.066406s13.488281 30.0625 30.066407 30.0625h15.066406v77.207032h-21.113282c-6.964843-39.851563-24.511718-77.566407-51.007812-109.46875-22.605469-27.222657-34.371094-61.773438-33.128906-97.28125 2.710937-77.441407 65.582031-138.535157 143.132812-139.082032.355469-.003906.699219-.003906 1.054688-.003906 38.347656 0 74.410156 14.851562 101.644531 41.894531 27.480469 27.289063 42.617187 63.648438 42.617187 102.375 0 33.546875-11.769531 66.21875-33.140624 92-26.53125 32-44.105469 69.75-51.082032 109.566407zm-21.117187-92.207032v-15.0625c0-8.308594 6.757812-15.066406 15.0625-15.066406 8.308593 0 15.066406 6.757812 15.066406 15.066406 0 8.304688-6.757813 15.0625-15.066406 15.0625zm0 0"/></svg>